HIERARCHY
ROOT Hips
{
	OFFSET 0.00000 0.00000 0.00000
	CHANNELS 6 Xposition Yposition Zposition Zrotation Yrotation Xrotation 
	JOINT LHipJoint
	{
		OFFSET 0 0 0
		CHANNELS 3 Zrotation Yrotation Xrotation
		JOINT LeftUpLeg
		{
			OFFSET 1.62329 -1.80800 0.67318
			CHANNELS 3 Zrotation Yrotation Xrotation
			JOINT LeftLeg
			{
				OFFSET 2.57139 -7.06484 0.00000
				CHANNELS 3 Zrotation Yrotation Xrotation
				JOINT LeftFoot
				{
					OFFSET 2.52017 -6.92413 0.00000
					CHANNELS 3 Zrotation Yrotation Xrotation
					JOINT LeftToeBase
					{
						OFFSET 0.23295 -0.64001 2.10214
						CHANNELS 3 Zrotation Yrotation Xrotation
						End Site
						{
							OFFSET 0.00000 -0.00000 1.10139
						}
					}
				}
			}
		}
	}
	JOINT RHipJoint
	{
		OFFSET 0 0 0
		CHANNELS 3 Zrotation Yrotation Xrotation
		JOINT RightUpLeg
		{
			OFFSET -1.48061 -1.80800 0.67318
			CHANNELS 3 Zrotation Yrotation Xrotation
			JOINT RightLeg
			{
				OFFSET -2.63258 -7.23296 0.00000
				CHANNELS 3 Zrotation Yrotation Xrotation
				JOINT RightFoot
				{
					OFFSET -2.54779 -7.00000 0.00000
					CHANNELS 3 Zrotation Yrotation Xrotation
					JOINT RightToeBase
					{
						OFFSET -0.23067 -0.63376 2.12161
						CHANNELS 3 Zrotation Yrotation Xrotation
						End Site
						{
							OFFSET -0.00000 -0.00000 1.11000
						}
					}
				}
			}
		}
	}
	JOINT LowerBack
	{
		OFFSET 0 0 0
		CHANNELS 3 Zrotation Yrotation Xrotation
		JOINT Spine
		{
			OFFSET -0.02108 2.07573 -0.16981
			CHANNELS 3 Zrotation Yrotation Xrotation
			JOINT Spine1
			{
				OFFSET 0.05070 2.08439 -0.03141
				CHANNELS 3 Zrotation Yrotation Xrotation
				JOINT Neck
				{
					OFFSET 0 0 0
					CHANNELS 3 Zrotation Yrotation Xrotation
					JOINT Neck1
					{
						OFFSET -0.10731 1.60408 0.31370
						CHANNELS 3 Zrotation Yrotation Xrotation
						JOINT Head
						{
							OFFSET 0.08411 1.65679 -0.30822
							CHANNELS 3 Zrotation Yrotation Xrotation
							End Site
							{
								OFFSET 0.03911 1.69149 -0.14146
							}
						}
					}
				}
				JOINT LeftShoulder
				{
					OFFSET 0 0 0
					CHANNELS 3 Zrotation Yrotation Xrotation
					JOINT LeftArm
					{
						OFFSET 3.52315 0.73219 -0.54694
						CHANNELS 3 Zrotation Yrotation Xrotation
						JOINT LeftForeArm
						{
							OFFSET 5.32462 -0.00000 -0.00000
							CHANNELS 3 Zrotation Yrotation Xrotation
							JOINT LeftHand
							{
								OFFSET 3.48402 -0.00000 -0.00000
								CHANNELS 3 Zrotation Yrotation Xrotation
								JOINT LeftFingerBase
								{
									OFFSET 0 0 0
									CHANNELS 3 Zrotation Yrotation Xrotation
									JOINT LeftHandIndex1
									{
										OFFSET 0.57248 -0.00000 -0.00000
										CHANNELS 3 Zrotation Yrotation Xrotation
										End Site
										{
											OFFSET 0.46154 -0.00000 -0.00000
										}
									}
								}
								JOINT LThumb
								{
									OFFSET 0 0 0
									CHANNELS 3 Zrotation Yrotation Xrotation
									End Site
									{
										OFFSET 0.46859 -0.00000 0.46859
									}
								}
							}
						}
					}
				}
				JOINT RightShoulder
				{
					OFFSET 0 0 0
					CHANNELS 3 Zrotation Yrotation Xrotation
					JOINT RightArm
					{
						OFFSET -3.41766 0.93592 -0.10019
						CHANNELS 3 Zrotation Yrotation Xrotation
						JOINT RightForeArm
						{
							OFFSET -5.33589 -0.00000 -0.00000
							CHANNELS 3 Zrotation Yrotation Xrotation
							JOINT RightHand
							{
								OFFSET -3.64134 -0.00000 -0.00000
								CHANNELS 3 Zrotation Yrotation Xrotation
								JOINT RightFingerBase
								{
									OFFSET 0 0 0
									CHANNELS 3 Zrotation Yrotation Xrotation
									JOINT RightHandIndex1
									{
										OFFSET -0.73481 -0.00000 -0.00000
										CHANNELS 3 Zrotation Yrotation Xrotation
										End Site
										{
											OFFSET -0.59242 -0.00000 -0.00000
										}
									}
								}
								JOINT RThumb
								{
									OFFSET 0 0 0
									CHANNELS 3 Zrotation Yrotation Xrotation
									End Site
									{
										OFFSET -0.60147 -0.00000 0.60147
									}
								}
							}
						}
					}
				}
			}
		}
	}
}
MOTION
Frames: 13
Frame Time: .0083333
-1.0680 17.8636 0.3510 5.0898 -20.1953 12.4850 0.0000 0.0000 0.0000 -20.3448 3.9406 -17.1176 0.9896 6.3315 17.7492 -1.6527 23.9419 -19.3542 0.7686 -5.5983 -15.6232 0.0000 0.0000 0.0000 3.1642 23.0951 -29.7457 -2.9783 -10.6598 31.1411 -0.0470 6.5395 -5.6953 -0.0044 -0.4270 1.1732 -3.7579 -6.5549 8.3235 6.2004 -8.9865 3.9995 9.1770 -4.7247 1.1658 -13.5833 -5.5080 -19.8996 4.8692 -5.2976 34.3425 3.3927 -3.4056 16.1732 -0.0000 0.0000 0.0000 -135.2784 -63.5796 147.0092 22.1026 -33.0927 -6.6418 -0.0000 -0.0000 43.5861 57.0633 31.9978 39.2807 -7.1250 0.0000 -0.0000 51.3695 73.6246 37.1584 -0.0000 0.0000 0.0000 48.3659 28.0284 53.0704 -59.4985 56.1748 -33.9242 0.0000 0.0000 51.9212 -51.6066 -14.6308 17.6805 7.1250 -0.0000 -0.0000 -24.8396 -51.0382 3.9008
-1.0655 17.8633 0.3676 5.2200 -20.9782 12.4775 0.0000 0.0000 0.0000 -20.6237 4.3269 -17.1687 0.9958 6.3508 17.8056 -1.6809 24.1416 -19.5505 0.7813 -5.6434 -15.7531 0.0000 0.0000 0.0000 2.8977 23.5585 -29.8512 -2.9725 -10.6504 31.1099 -0.0319 6.7183 -5.4622 -0.0030 -0.3566 0.9797 -3.8661 -6.7271 8.2684 6.2809 -9.2270 3.9730 9.3235 -4.8547 1.2467 -13.5483 -5.1628 -19.8561 4.6199 -4.7100 34.2405 3.3924 -3.1945 16.0274 -0.0000 -0.0000 0.0000 -135.2784 -63.5796 147.0092 22.1026 -33.0927 -6.6418 -0.0000 -0.0000 43.5861 57.0633 31.9978 39.2807 -7.1250 0.0000 -0.0000 51.3695 73.6246 37.1584 -0.0000 -0.0000 0.0000 48.6942 29.0704 53.2963 -58.3957 55.8671 -33.0097 0.0000 0.0000 51.5186 -51.9534 -14.6717 17.9337 7.1250 -0.0000 -0.0000 -25.2668 -51.1895 4.0736
-1.0612 17.8673 0.3908 5.2644 -21.7472 12.5575 0.0000 0.0000 0.0000 -20.8224 4.6861 -17.2538 1.0000 6.3637 17.8435 -1.7219 24.3779 -19.6753 0.8220 -5.7848 -16.1612 0.0000 0.0000 0.0000 2.6883 23.9784 -30.0058 -2.9739 -10.6526 31.1171 -0.0163 6.9808 -5.2726 -0.0059 -0.4962 1.3635 -3.7277 -6.9124 8.0240 6.3257 -9.4657 3.9574 9.2642 -4.9786 1.3948 -13.5366 -4.7565 -19.7949 4.4606 -4.0607 34.1350 3.4468 -2.9476 15.8737 -0.0000 0.0000 0.0000 -135.2784 -63.5796 147.0092 22.1026 -33.0927 -6.6418 -0.0000 -0.0000 43.5861 57.0633 31.9978 39.2807 -7.1250 0.0000 -0.0000 51.3695 73.6246 37.1584 -0.0000 0.0000 0.0000 49.0825 29.7423 53.4369 -58.2151 55.8152 -32.8602 0.0000 0.0000 51.1595 -51.9201 -14.4024 17.6118 7.1250 -0.0000 -0.0000 -25.1030 -50.8094 3.7995
-1.0600 17.8687 0.4070 5.3298 -22.5214 12.4812 0.0000 0.0000 0.0000 -20.9957 5.0262 -17.1756 1.0028 6.3723 17.8685 -1.8341 24.8111 -19.3556 0.9697 -6.2693 -17.5679 0.0000 0.0000 0.0000 2.5411 24.4147 -30.0188 -2.9777 -10.6588 31.1377 -0.0001 7.2273 -5.0671 -0.0085 -0.5966 1.6394 -3.9919 -6.9996 8.4220 6.6305 -9.6017 3.7471 9.8205 -5.0476 1.0852 -13.7063 -4.3477 -19.8635 4.0390 -3.2295 34.2449 3.4547 -2.6936 15.8422 -0.0000 0.0000 0.0000 -135.2784 -63.5796 147.0092 22.1026 -33.0927 -6.6418 -0.0000 -0.0000 43.5861 57.0633 31.9978 39.2807 -7.1250 0.0000 -0.0000 51.3695 73.6246 37.1584 -0.0000 0.0000 0.0000 48.9930 30.0377 53.7540 -58.3187 55.8450 -32.9460 0.0000 0.0000 51.1447 -51.8831 -14.6378 17.8534 7.1250 -0.0000 -0.0000 -25.1679 -51.1234 4.0132
-1.0665 17.8628 0.4102 5.6224 -23.1571 12.3468 0.0000 0.0000 0.0000 -21.3292 5.3112 -17.1618 1.0005 6.3652 17.8479 -1.9483 25.1537 -18.6819 1.1707 -6.8679 -19.3246 0.0000 0.0000 0.0000 2.1614 24.8405 -30.1178 -2.9834 -10.6681 31.1686 0.0092 7.2966 -4.8982 -0.0104 -0.6593 1.8118 -4.3226 -7.0825 8.5907 6.6753 -9.7426 3.7512 10.0819 -5.1303 1.0931 -13.5809 -4.0192 -19.9703 3.7659 -2.6624 34.0296 3.4176 -2.4715 15.6858 -0.0000 -0.0000 0.0000 -135.2784 -63.5796 147.0092 22.1026 -33.0927 -6.6418 -0.0000 -0.0000 43.5861 57.0633 31.9978 39.2807 -7.1250 0.0000 -0.0000 51.3695 73.6246 37.1584 -0.0000 -0.0000 0.0000 49.2932 30.6628 53.8119 -57.7554 55.6815 -32.4803 0.0000 0.0000 51.0545 -51.8233 -14.3441 17.4892 7.1250 -0.0000 -0.0000 -24.9632 -50.7028 3.7076
-1.0722 17.8607 0.4220 5.8083 -23.7846 12.2853 0.0000 0.0000 0.0000 -21.5786 5.6540 -17.1565 0.9947 6.3474 17.7957 -1.9768 25.2445 -18.5241 1.2234 -7.0153 -19.7608 0.0000 0.0000 0.0000 1.8831 25.2369 -30.2111 -2.9890 -10.6771 31.1986 0.0201 7.4157 -4.7288 -0.0094 -0.6247 1.7165 -4.1908 -7.0807 8.4424 6.4768 -9.7329 3.9127 9.7562 -5.1283 1.2813 -13.0940 -3.8179 -20.2690 3.6734 -2.4567 33.8986 3.3306 -2.3273 15.6487 0.0000 0.0000 0.0000 -135.2784 -63.5796 147.0092 22.1026 -33.0927 -6.6418 -0.0000 -0.0000 43.5861 57.0633 31.9978 39.2807 -7.1250 0.0000 -0.0000 51.3695 73.6246 37.1584 0.0000 0.0000 0.0000 49.9491 31.0858 53.3602 -57.1450 55.4999 -31.9766 0.0000 0.0000 51.0125 -51.5780 -14.0620 17.0305 7.1250 -0.0000 -0.0000 -24.5530 -50.2479 3.3533
-1.0702 17.8616 0.4461 5.8492 -24.5766 12.2281 0.0000 0.0000 0.0000 -21.6851 5.6993 -16.9027 0.9901 6.3330 17.7538 -2.0344 25.6586 -19.0902 1.1652 -6.8523 -19.2786 0.0000 0.0000 0.0000 1.7535 25.6567 -30.2256 -2.9927 -10.6833 31.2189 0.0385 7.7076 -4.5180 -0.0088 -0.6049 1.6624 -4.0081 -6.9056 8.3705 6.4372 -9.4921 4.0794 9.5831 -5.0117 1.4090 -12.7171 -3.7364 -20.8258 3.5175 -2.3279 33.9934 3.2248 -2.2466 15.7966 0.0000 0.0000 0.0000 -135.2784 -63.5796 147.0092 22.1026 -33.0927 -6.6418 -0.0000 -0.0000 43.5861 57.0633 31.9978 39.2807 -7.1250 0.0000 -0.0000 51.3695 73.6246 37.1584 0.0000 0.0000 0.0000 50.6041 31.7873 51.6072 -64.1756 57.3237 -37.8364 0.0000 0.0000 29.0089 -39.1581 6.7265 -5.4487 7.1250 -0.0000 -0.0000 -8.9685 -21.3728 -5.1454
-1.0696 17.8643 0.4718 5.8651 -25.3394 12.2271 0.0000 0.0000 0.0000 -21.8230 5.9691 -16.8048 0.9859 6.3200 17.7157 -2.1105 26.0121 -19.1359 1.2008 -6.9527 -19.5754 0.0000 0.0000 0.0000 1.6326 26.0631 -30.2793 -2.9921 -10.6822 31.2154 0.0576 7.9882 -4.2936 -0.0094 -0.6245 1.7162 -3.7267 -6.7964 8.2840 6.3618 -9.3277 4.1613 9.3225 -4.9227 1.4482 -12.2833 -3.5232 -21.2695 3.3359 -2.0419 34.1098 3.1298 -2.1003 15.9108 0.0000 -0.0000 0.0000 -135.2784 -63.5796 147.0092 22.1026 -33.0927 -6.6418 -0.0000 -0.0000 43.5861 57.0633 31.9978 39.2807 -7.1250 0.0000 -0.0000 51.3695 73.6246 37.1584 0.0000 -0.0000 0.0000 51.0985 31.7452 50.8148 -63.3119 57.1297 -37.1101 0.0000 0.0000 30.7889 -39.7746 5.8575 -4.8557 7.1250 -0.0000 -0.0000 -9.5372 -22.4085 -5.2525
-1.0735 17.8671 0.4913 5.9197 -25.8937 12.2476 0.0000 0.0000 0.0000 -21.9812 6.3551 -16.8239 0.9817 6.3069 17.6775 -2.1360 26.0689 -18.9171 1.2597 -7.1149 -20.0561 0.0000 0.0000 0.0000 1.4948 26.3712 -30.3629 -2.9926 -10.6830 31.2181 0.0707 8.1890 -4.1539 -0.0110 -0.6761 1.8578 -3.4974 -6.8221 8.0346 6.2955 -9.3523 4.3212 9.0746 -4.9408 1.7072 -11.8850 -3.2386 -21.6792 3.1715 -1.6446 34.0347 3.0665 -1.9019 15.9150 -0.0000 0.0000 0.0000 -135.2784 -63.5796 147.0092 22.1026 -33.0927 -6.6418 -0.0000 -0.0000 43.5861 57.0633 31.9978 39.2807 -7.1250 0.0000 -0.0000 51.3695 73.6246 37.1584 -0.0000 0.0000 0.0000 51.5429 31.9740 50.1789 -62.5986 56.9635 -36.5116 0.0000 0.0000 32.3246 -39.9615 4.5040 -3.7649 7.1250 -0.0000 -0.0000 -9.8741 -24.1195 -5.0493
-1.0785 17.8692 0.5066 6.1236 -26.3204 12.1661 0.0000 0.0000 0.0000 -22.2519 6.7878 -16.8541 0.9780 6.2952 17.6435 -2.1200 25.9456 -18.7118 1.3213 -7.2801 -20.5480 0.0000 0.0000 0.0000 1.2460 26.6013 -30.4113 -3.0007 -10.6962 31.2620 0.0758 8.2933 -4.1256 -0.0209 -0.9335 2.5659 -3.6614 -6.9008 8.3812 6.4889 -9.4634 4.0950 9.4455 -4.9897 1.3639 -11.8506 -2.8697 -21.7241 2.8781 -0.9940 33.9619 3.0577 -1.6698 15.8229 0.0000 -0.0000 0.0000 -135.2784 -63.5796 147.0092 22.1026 -33.0927 -6.6418 -0.0000 -0.0000 43.5861 57.0633 31.9978 39.2807 -7.1250 0.0000 -0.0000 51.3695 73.6246 37.1584 0.0000 -0.0000 0.0000 51.4849 31.9702 50.0433 -61.8942 56.7939 -35.9216 0.0000 0.0000 33.6753 -39.9605 2.8392 -2.3767 7.1250 -0.0000 -0.0000 -10.1168 -26.2523 -4.6669
-1.0835 17.8681 0.5209 6.3890 -26.7202 12.0100 0.0000 0.0000 0.0000 -22.5318 7.0613 -16.8085 0.9788 6.2977 17.6508 -2.1239 25.9198 -18.5375 1.3933 -7.4678 -21.1089 0.0000 0.0000 0.0000 0.9603 26.8050 -30.4031 -3.0110 -10.7128 31.3172 0.0825 8.4251 -4.0865 -0.0462 -1.3870 3.8143 -3.9715 -6.9387 8.5161 6.7165 -9.5432 4.0690 9.8893 -5.0475 1.3758 -11.8952 -2.5158 -21.9461 2.6398 -0.3227 33.8556 3.0900 -1.4275 15.7583 0.0000 -0.0000 0.0000 -135.2784 -63.5796 147.0092 22.1026 -33.0927 -6.6418 -0.0000 -0.0000 43.5861 57.0633 31.9978 39.2807 -7.1250 0.0000 -0.0000 51.3695 73.6246 37.1584 0.0000 -0.0000 0.0000 51.2210 32.1762 49.5986 -60.9932 56.5688 -35.1687 0.0000 0.0000 35.0348 -40.4600 1.1586 -0.9880 7.1250 -0.0000 -0.0000 -10.7368 -28.3919 -4.4112
-1.0868 17.8691 0.5371 6.6220 -27.1195 11.8950 0.0000 0.0000 0.0000 -22.7898 7.2903 -16.8020 0.9854 6.3183 17.7109 -2.0887 25.7936 -18.6680 1.3826 -7.4403 -21.0266 0.0000 0.0000 0.0000 0.6871 26.9989 -30.4346 -3.0182 -10.7245 31.3564 0.0911 8.5686 -4.0130 -0.0480 -1.4142 3.8893 -4.1487 -6.9606 8.5947 6.8972 -9.5898 4.0272 10.2018 -5.0816 1.3642 -11.9310 -2.1189 -22.1267 2.5056 0.3622 33.7693 3.1687 -1.1639 15.6920 -0.0000 0.0000 0.0000 -135.2784 -63.5796 147.0092 22.1026 -33.0927 -6.6418 -0.0000 -0.0000 43.5861 57.0633 31.9978 39.2807 -7.1250 0.0000 -0.0000 51.3695 73.6246 37.1584 -0.0000 0.0000 0.0000 50.9845 32.2601 49.1867 -60.1477 56.3492 -34.4640 0.0000 0.0000 35.7396 -41.3160 -1.2085 1.0621 7.1250 -0.0000 -0.0000 -11.7526 -31.4508 -3.9675
-1.0892 17.8728 0.5531 6.7434 -27.5103 11.8594 0.0000 0.0000 0.0000 -22.9450 7.4705 -16.8625 0.9965 6.3528 17.8116 -2.0685 25.7232 -18.7488 1.3376 -7.3230 -20.6760 0.0000 0.0000 0.0000 0.5176 27.2006 -30.5147 -3.0220 -10.7305 31.3763 0.0970 8.6504 -3.9490 -0.0578 -1.5515 4.2676 -4.2511 -7.0126 8.6445 7.1070 -9.6727 4.0072 10.4997 -5.1359 1.3925 -11.8547 -1.6382 -22.3444 2.3146 1.1524 33.6311 3.2223 -0.8468 15.6003 -0.0000 -0.0000 0.0000 -135.2784 -63.5796 147.0092 22.1026 -33.0927 -6.6418 -0.0000 -0.0000 43.5861 57.0633 31.9978 39.2807 -7.1250 0.0000 -0.0000 51.3695 73.6246 37.1584 -0.0000 -0.0000 0.0000 50.7497 32.3898 48.9726 -59.3444 56.1327 -33.7962 0.0000 0.0000 35.9685 -42.2515 -4.2649 3.8647 7.1250 -0.0000 -0.0000 -12.9864 -35.4781 -3.1040
